# AST/ASF file generated using VICON BodyLanguage
# -----------------------------------------------
:version 1.10
:name VICON
:units
  mass 1.0
  length 0.45
  angle deg
:documentation
   .ast/.asf automatically generated from VICON data using
   VICON BodyBuilder and BodyLanguage model FoxedUp or BRILLIANT.MOD
:root
   order TX TY TZ RX RY RZ
   axis XYZ
   position 0 0 0  
   orientation 0 0 0 
:bonedata
  begin
     id 1 
     name lhipjoint
     direction 0.535335 -0.74333 0.401095 
     length 2.04549 
     axis 0 0 0  XYZ
  end
  begin
     id 2 
     name lfemur
     direction 0.34202 -0.939693 0  
     length 6.95643  
     axis 0 0 20  XYZ
    dof rx ry rz
    limits (-160.0 20.0)
           (-70.0 70.0)
           (-60.0 70.0)
  end
  begin
     id 3 
     name ltibia
     direction 0.34192 -0.939729 0   
     length 5.55969   
     axis 0 0 20   XYZ
    dof rx
    limits (-10.0 170.0)
  end
  begin
     id 4 
     name lfoot
     direction 0.216943 -0.596046 0.773088   
     length 2.27918   
     axis -90 7.62852e-016 20   XYZ
    dof rx rz
    limits (-45.0 90.0)
           (-70.0 20.0)
  end
  begin
     id 5 
     name ltoes
     direction 1.53519e-011 -4.21748e-011 1   
     length 1.05562   
     axis -90 7.62852e-016 20   XYZ
    dof rx
    limits (-90.0 20.0)
  end
  begin
     id 6 
     name rhipjoint
     direction -0.576368 -0.719173 0.38806   
     length 2.1142  
     axis 0 0 0  XYZ 
  end
  begin
     id 7 
     name rfemur
     direction -0.34202 -0.939693 0   
     length 7.07928   
     axis 0 0 -20   XYZ
    dof rx ry rz
    limits (-160.0 20.0)
           (-70.0 70.0)
           (-70.0 60.0)
  end
  begin
     id 8 
     name rtibia
     direction -0.34202 -0.939693 0   
     length 5.79974   
     axis 0 0 -20   XYZ
    dof rx
    limits (-10.0 170.0)
 end
 begin
     id 9 
     name rfoot
     direction -0.189288 -0.520065 0.832888   
     length 2.42173  
     axis -90 -7.62852e-016 -20   XYZ
    dof rx rz
    limits (-45.0 90.0)
           (-20.0 70.0)
  end
  begin
     id 10 
     name rtoes
     direction -1.53574e-011 -4.21658e-011 1   
     length 1.14469   
     axis -90 -7.62852e-016 -20   XYZ
    dof rx
    limits (-90.0 20.0)
  end
  begin
     id 11 
     name lowerback
     direction -0.00135702 0.993803 0.111144   
     length 1.91308   
     axis 0 0 0   XYZ
    dof rx ry rz
    limits (-20.0 45.0)
           (-30.0 30.0)
           (-30.0 30.0)
  end
  begin
     id 12 
     name upperback
     direction -0.0056745 0.999813 0.0184631   
     length 1.9212   
     axis 0 0 0   XYZ
    dof rx ry rz
    limits (-20.0 45.0)
           (-30.0 30.0)
           (-30.0 30.0)
  end
  begin
     id 13 
     name thorax
     direction -0.00733434 0.999426 -0.0330788   
     length 1.94196   
     axis 0 0 0   XYZ
    dof rx ry rz
    limits (-20.0 45.0)
           (-30.0 30.0)
           (-30.0 30.0)
  end
  begin
     id 14 
     name lowerneck
     direction 0.0563074 0.996944 -0.0541571   
     length 2.34257   
     axis 0 0 0   XYZ
    dof rx ry rz
    limits (-20.0 45.0)
           (-30.0 30.0)
           (-30.0 30.0)
  end
  begin
     id 15 
     name upperneck
     direction -0.0544519 0.976166 -0.210085   
     length 2.32506   
     axis 0 0 0   XYZ
    dof rx ry rz
    limits (-20.0 45.0)
           (-30.0 30.0)
           (-30.0 30.0)
  end
  begin
     id 16
     name head
     direction -0.0226035 0.997615 -0.0652205  
     length 2.3648  
     axis 0 0 0   XYZ
    dof rx ry rz
    limits (-20.0 45.0)
           (-30.0 30.0)
           (-30.0 30.0)
  end
  begin
     id 17 
     name lclavicle
     direction 0.92109 0.381297 -0.0787716  
     length 4.0487  
     axis 0 0 0   XYZ
    dof ry rz
    limits (-20.0 10.0)
           (0.0 20.0)
  end
  begin
     id 18 
     name lhumerus
     direction 1 -4.48986e-011 3.56724e-027   
     length 4.94991   
     axis 180 -30 -90   XYZ
    dof rx ry rz
    limits (-60.0 90.0)
           (-90.0 90.0)
           (-90.0 90.0)
  end
  begin
     id 19
     name lradius
     direction 1 -4.48981e-011 8.62147e-027   
     length 2.7606   
     axis 180 -30 -90   XYZ
    dof rx
    limits (-10.0 170.0)
  end
  begin
     id 20
     name lwrist
     direction 1 -4.48989e-011 1.59799e-026   
     length 1.3803   
     axis -1.17785e-014 90 90   XYZ
    dof ry
    limits (-180.0 0.0)
 end
  begin
     id 21 
     name lhand
     direction 1 -4.48896e-011 3.19599e-026   
     length 0.843936   
     axis -2.03931e-014 90 90   XYZ
    dof rx rz
    limits (-90.0 90.0)
           (-45.0 45.0)
  end
  begin
     id 22 
     name lfingers
     direction 1 -4.48887e-011 6.39197e-026   
     length 0.680403   
     axis -4.07862e-014 90 90   XYZ
    dof rx
    limits (0.0 90.0)
  end
  begin
     id 23
     name lthumb
     direction 0.707107 -6.348e-011 0.707107   
     length 0.976926   
     axis -90 45 2.85299e-015   XYZ
    dof rx rz
    limits (-45.0 45.0)
           (-45.0 45.0)
  end
  begin
     id 24 
     name rclavicle
     direction -0.951104 0.307692 -0.026953   
     length 4.21801  
     axis 0 0 0   XYZ 
    dof ry rz
    limits (-10.0 20.0)
           (-20.0 0.0)
  end
  begin
     id 25 
     name rhumerus
     direction -1 -4.4896e-011 -1.8171e-018  
     length 4.32982   
     axis 180 30 90   XYZ
    dof rx ry rz
    limits (-90.0 60.0)
           (-90.0 90.0)
           (-90.0 90.0)
  end
  begin
     id 26 
     name rradius
     direction -1 -4.48959e-011 8.25165e-027   
     length 3.20057   
     axis 180 30 90   XYZ
    dof rx
    limits (-10.0 170.0)
  end
  begin
     id 27 
     name rwrist
     direction -1 -4.48997e-011 1.59799e-026   
     length 1.60029   
     axis -1.17785e-014 -90 -90   XYZ
    dof ry
    limits (-180.0 0.0)
  end
  begin
     id 28
     name rhand
     direction -1 -4.49023e-011 3.19599e-026   
     length 0.960433   
     axis -2.03931e-014 -90 -90   XYZ
    dof rx rz
    limits (-90.0 90.0)
           (-45.0 45.0)
  end
  begin
     id 29
     name rfingers
     direction -1 -4.48802e-011 6.39197e-026   
     length 0.774326   
     axis -4.07862e-014 -90 -90   XYZ
    dof rx
    limits (0.0 90.0)
  end
  begin
     id 30
     name rthumb
     direction -0.707107 -6.34876e-011 0.707107   
     length 1.11178   
     axis -90 -45 -2.85299e-015   XYZ
    dof rx rz
    limits (-45.0 45.0)
           (-45.0 45.0)
  end
:hierarchy
  begin
    root lhipjoint rhipjoint lowerback
    lhipjoint lfemur
    lfemur ltibia
    ltibia lfoot
    lfoot ltoes
    rhipjoint rfemur
    rfemur rtibia
    rtibia rfoot
    rfoot rtoes
    lowerback upperback
    upperback thorax
    thorax lowerneck lclavicle rclavicle
    lowerneck upperneck
    upperneck head
    lclavicle lhumerus
    lhumerus lradius
    lradius lwrist
    lwrist lhand lthumb
    lhand lfingers
    rclavicle rhumerus
    rhumerus rradius
    rradius rwrist
    rwrist rhand rthumb
    rhand rfingers
end

#!OML:ASF C:\KaitlinTest1\Natural Motions\Nikki\Session 2\Nikki.ASF
:FULLY-SPECIFIED
:DEGREES
293
root -0.3016 14.6745 5.20914 -171.657 85.311 -179.852
lowerback -5.36071 -2.33249 2.2847
upperback -3.30338 -3.13299 0.326428
thorax -0.501765 -1.56724 -1.0912
lowerneck 0.150072 -10.2676 -14.2161
upperneck 7.01725 39.239 4.46087
head 164.024 65.0067 -38.4148
rclavicle -1.1368e-014 1.33186e-014
rhumerus -50.7622 12.1563 -89.712
rradius 51.2204
rwrist -7.73517
rhand -45.1727 10.5768
rfingers 7.12502
rthumb -17.9498 -18.6148
lclavicle -1.1368e-014 1.33186e-014
lhumerus -41.512 -1.41757 74.8206
lradius 54.1423
lwrist -1.95564
lhand -40.9211 5.38915
lfingers 7.12502
lthumb -13.8556 34.9076
rfemur -43.6662 -9.39017 19.3696
rtibia 71.1131
rfoot -27.8778 5.68822
rtoes -1.00187e-013
lfemur -42.0129 -0.857225 -19.6536
ltibia 64.9145
lfoot -19.6547 -3.26008
ltoes -6.52014e-014
294
root -0.240059 14.5692 5.22596 -174.828 85.1151 -182.096
lowerback -3.95155 -2.45899 1.9781
upperback -3.16137 -3.27268 0.238961
thorax -1.13155 -1.64439 -0.952874
lowerneck 0.021887 -10.2384 -14.1672
upperneck 7.12907 39.7637 4.61797
head 164.644 64.3196 -38.0128
rclavicle -4.33925e-014 -4.17448e-015
rhumerus -51.239 10.2871 -89.395
rradius 49.9859
rwrist -7.92526
rhand -45.6429 9.93585
rfingers 7.12502
rthumb -18.4022 -19.2137
lclavicle -4.33925e-014 -4.17448e-015
lhumerus -42.5586 0.103134 75.0617
lradius 52.5901
lwrist -2.41167
lhand -40.514 5.31835
lfingers 7.12502
lthumb -13.4633 34.8632
rfemur -43.2587 -10.358 19.455
rtibia 72.8532
rfoot -28.5893 5.11469
rtoes -8.5875e-014
lfemur -41.514 -0.554536 -20.0252
ltibia 66.363
lfoot -20.6733 -3.13522
ltoes 9.22361e-014
295
root -0.175055 14.5004 5.2389 -179.896 84.9464 -186.577
lowerback -3.08887 -2.59664 1.49448
upperback -3.05625 -3.43948 0.0915479
thorax -1.48947 -1.7265 -0.79871
lowerneck -0.010984 -10.1973 -14.0977
upperneck 7.24976 40.181 4.75475
head 165.001 63.8232 -37.7836
rclavicle -2.32951e-017 5.56597e-015
rhumerus -51.5907 8.70946 -89.1053
rradius 48.4861
rwrist -7.78217
rhand -46.0096 9.61555
rfingers 7.12502
rthumb -18.755 -19.5003
lclavicle -2.32951e-017 5.56597e-015
lhumerus -43.4916 1.62147 75.1834
lradius 51.0164
lwrist -2.71591
lhand -40.6805 5.83297
lfingers 7.12502
lthumb -13.6237 35.3671
rfemur -42.9801 -10.9628 19.2398
rtibia 74.1667
rfoot -29.4101 4.45801
rtoes 1.43125e-014
lfemur -41.0998 -0.381838 -20.577
ltibia 67.3951
lfoot -21.4549 -2.96226
ltoes 6.52014e-014
296
root -0.110522 14.4563 5.24422 -181.649 85.0344 -187.986
lowerback -2.48441 -2.63835 1.42433
upperback -3.07185 -3.48899 -0.00114897
thorax -1.84624 -1.75451 -0.823734
lowerneck 0.123437 -10.0727 -14.0961
upperneck 7.46912 40.7704 4.97385
head 165.638 63.23 -37.3637
rclavicle 5.40291e-015 -1.35174e-014
rhumerus -52.0099 7.52504 -88.9739
rradius 47.1123
rwrist -8.52238
rhand -46.3921 9.36451
rfingers 7.12502
rthumb -19.1228 -19.7154
lclavicle 5.40291e-015 -1.35174e-014
lhumerus -44.3525 3.52714 75.0342
lradius 49.3247
lwrist -3.28892
lhand -40.654 5.74897
lfingers 7.12502
lthumb -13.5982 35.2849
rfemur -42.7395 -10.7808 19.0714
rtibia 75.0194
rfoot -29.9727 4.13444
rtoes 7.4743e-014
lfemur -40.692 -0.452216 -20.6839
ltibia 68.0909
lfoot -22.1794 -2.62438
ltoes 1.86062e-013
297
root -0.0531431 14.4261 5.24133 -181.805 85.1565 -188.042
lowerback -2.1191 -2.64321 1.59064
upperback -3.24351 -3.48821 -0.0280813
thorax -2.23977 -1.76044 -0.919627
lowerneck 0.582832 -9.89471 -14.2598
upperneck 7.78853 41.3536 5.19124
head 166.248 62.6155 -36.8814
rclavicle -1.25483e-014 -8.74653e-015
rhumerus -52.6252 6.74089 -88.9735
rradius 45.8139
rwrist -10.5336
rhand -46.4693 10.5387
rfingers 7.12502
rthumb -19.197 -18.5338
lclavicle -1.25483e-014 -8.74653e-015
lhumerus -45.3799 5.01383 75.061
lradius 47.6625
lwrist -3.66375
lhand -40.6263 5.69771
lfingers 7.12502
lthumb -13.5715 35.2354
rfemur -42.5631 -10.3881 19.0617
rtibia 75.5136
rfoot -30.5685 3.5513
rtoes -8.26944e-014
lfemur -40.4319 -0.967186 -20.5698
ltibia 68.6068
lfoot -22.7784 -2.01004
ltoes 1.25632e-013
298
root 0.00595984 14.3943 5.24805 -181.493 85.2471 -187.892
lowerback -2.11498 -2.73379 1.55435
upperback -3.15692 -3.61127 0.00726464
thorax -2.15174 -1.82064 -0.865576
lowerneck 0.388825 -9.84368 -14.2209
upperneck 7.61705 41.0372 5.05597
head 165.967 63.0641 -37.0646
rclavicle 5.29932e-014 -1.2921e-015
rhumerus -52.4076 5.95371 -88.7025
rradius 44.4169
rwrist -10.6013
rhand -46.0458 9.91758
rfingers 7.12502
rthumb -18.7897 -19.1949
lclavicle 5.29932e-014 -1.2921e-015
lhumerus -45.6836 6.78761 74.8998
lradius 45.7465
lwrist -4.09438
lhand -40.7584 5.28688
lfingers 7.12502
lthumb -13.6988 34.816
rfemur -42.5491 -9.77065 19.1961
rtibia 75.7749
rfoot -31.2441 2.48876
rtoes 1.27222e-014
lfemur -40.556 -1.24168 -20.4467
ltibia 69.0398
lfoot -23.1641 -1.66091
ltoes -3.49861e-014
299
root 0.0660659 14.3729 5.25743 -181.637 85.279 -188.315
lowerback -2.2428 -2.7576 1.5247
upperback -3.30241 -3.63948 0.0112759
thorax -2.22884 -1.83357 -0.847101
lowerneck 0.78512 -9.60488 -14.4364
upperneck 7.75615 41.2228 5.19145
head 166.831 62.9716 -36.416
rclavicle -7.91256e-015 -8.94531e-015
rhumerus -52.5142 5.3543 -88.4222
rradius 42.8131
rwrist -10.6383
rhand -45.4888 9.85609
rfingers 7.12502
rthumb -18.254 -19.3074
lclavicle -7.91256e-015 -8.94531e-015
lhumerus -46.3585 8.5731 74.5892
lradius 44.0238
lwrist -5.32672
lhand -40.6901 5.08427
lfingers 7.12502
lthumb -13.6329 34.6178
rfemur -42.4562 -8.97802 19.2061
rtibia 75.8417
rfoot -31.9581 1.44856
rtoes 1.11319e-014
lfemur -40.7166 -1.35283 -20.4278
ltibia 69.471
lfoot -23.6089 -1.41344
ltoes 2.8625e-014
300
root 0.119705 14.3602 5.2678 -181.521 85.2358 -188.507
lowerback -2.45863 -2.85136 1.40144
upperback -3.3194 -3.76422 0.0721632
thorax -2.11658 -1.89122 -0.727747
lowerneck 0.871898 -9.49359 -14.5323
upperneck 7.73266 41.1199 5.14626
head 166.88 63.1666 -36.3335
rclavicle 7.2106e-015 -1.07344e-014
rhumerus -52.3504 4.81941 -88.0876
rradius 41.2032
rwrist -10.1847
rhand -44.9617 9.92885
rfingers 7.12502
rthumb -17.7468 -19.2813
lclavicle 7.2106e-015 -1.07344e-014
lhumerus -46.7142 9.11049 75.4777
lradius 42.7332
lwrist -1.33584
lhand -43.2201 3.53282
lfingers 7.12502
lthumb -16.0703 32.8864
rfemur -42.3731 -8.16102 19.1838
rtibia 75.7717
rfoot -32.6007 0.510717
rtoes 3.49861e-014
lfemur -40.9501 -1.50273 -20.3825
ltibia 69.74
lfoot -23.8564 -1.25466
ltoes 1.33583e-013
301
root 0.169569 14.3614 5.27244 -182.657 85.1666 -189.996
lowerback -2.71597 -2.91372 1.34557
upperback -3.35844 -3.84892 -0.00609454
thorax -2.01664 -1.93214 -0.790054
lowerneck 1.04605 -9.41147 -14.5503
upperneck 7.7287 40.967 5.14511
head 166.982 63.3932 -36.2139
rclavicle 2.57387e-014 3.57812e-015
rhumerus -52.3644 4.06532 -87.7124
rradius 39.7555
rwrist -9.03872
rhand -44.4896 10.0923
rfingers 7.12502
rthumb -17.2924 -19.1583
lclavicle 2.57387e-014 3.57812e-015
lhumerus -47.1976 11.4466 74.1766
lradius 40.7838
lwrist -6.49671
lhand -40.9763 4.78146
lfingers 7.12502
lthumb -13.9088 34.2963
rfemur -42.2648 -7.48193 19.0288
rtibia 75.5111
rfoot -33.1075 -0.301454
rtoes -1.11319e-014
lfemur -41.1798 -1.69831 -20.4973
ltibia 69.8786
lfoot -24.0085 -1.02453
ltoes 1.1291e-013
302
root 0.231067 14.378 5.28566 -184.952 85.0571 -192.688
lowerback -3.34096 -2.98012 0.977321
upperback -3.29681 -3.93687 -0.0103995
thorax -1.58096 -1.96542 -0.629109
lowerneck 1.1748 -9.36326 -14.6446
upperneck 7.66978 40.6872 5.04091
head 166.812 63.6948 -36.248
rclavicle -1.51775e-014 -7.45443e-015
rhumerus -52.2416 3.54022 -87.3404
rradius 38.2989
rwrist -8.3158
rhand -44.3455 10.4109
rfingers 7.12502
rthumb -17.1538 -18.8519
lclavicle -1.51775e-014 -7.45443e-015
lhumerus -47.4558 13.4239 73.6332
lradius 38.9181
lwrist -8.07076
lhand -41.0448 4.39187
lfingers 7.12502
lthumb -13.9748 33.9022
rfemur -42.1348 -6.7301 18.8645
rtibia 75.1611
rfoot -33.3663 -1.31518
rtoes 1.27222e-013
lfemur -41.317 -1.81057 -20.6537
ltibia 69.7664
lfoot -24.033 -0.905882
ltoes 6.99722e-014
303
root 0.274809 14.4005 5.28984 -184.553 85.0569 -192.561
lowerback -3.48149 -2.99276 1.12666
upperback -3.36368 -3.95579 -0.0762201
thorax -1.58693 -1.9779 -0.785097
lowerneck 1.4032 -9.23307 -14.6967
upperneck 7.7716 40.8363 5.16385
head 167.334 63.6543 -35.8856
rclavicle 3.31959e-014 1.45113e-014
rhumerus -52.4788 2.83691 -87.0103
rradius 37.1237
rwrist -7.39416
rhand -44.372 10.6645
rfingers 7.12502
rthumb -17.1793 -18.5961
lclavicle 3.31959e-014 1.45113e-014
lhumerus -47.8975 14.6528 73.1731
lradius 37.4417
lwrist -9.12041
lhand -41.0334 4.14821
lfingers 7.12502
lthumb -13.9638 33.6593
rfemur -42.0353 -6.33143 19.0214
rtibia 74.667
rfoot -33.2362 -2.58558
rtoes -3.65764e-014
lfemur -41.2733 -1.94044 -20.6776
ltibia 69.5106
lfoot -24.0434 -0.634029
ltoes -6.52014e-014
304
root 0.32446 14.4389 5.30053 -186.143 84.9557 -194.387
lowerback -3.71212 -3.0507 0.90019
upperback -3.37608 -4.02836 -0.0999272
thorax -1.45851 -2.00873 -0.69826
lowerneck 1.56178 -9.14855 -14.7778
upperneck 7.84383 40.9374 5.208
head 167.542 63.5806 -35.7132
rclavicle 2.02357e-015 3.97569e-016
rhumerus -52.6709 2.33469 -86.645
rradius 35.9873
rwrist -6.64931
rhand -44.4966 10.7077
rfingers 7.12502
rthumb -17.2992 -18.5424
lclavicle 2.02357e-015 3.97569e-016
lhumerus -48.5974 16.5327 72.3785
lradius 36.2751
lwrist -10.8626
lhand -40.8976 3.81179
lfingers 7.12502
lthumb -13.833 33.3318
rfemur -41.6277 -5.65525 18.8579
rtibia 74.2487
rfoot -33.2492 -3.32647
rtoes -2.70347e-014
lfemur -41.0504 -2.03233 -20.7732
ltibia 68.9383
lfoot -23.855 -0.628291
ltoes -3.18055e-015
305
root 0.372984 14.4798 5.30977 -188.292 84.906 -196.848
lowerback -3.95852 -3.05683 0.77201
upperback -3.43762 -4.03206 -0.217422
thorax -1.38422 -2.00794 -0.759595
lowerneck 1.74898 -9.08616 -14.8034
upperneck 7.91234 40.9849 5.27458
head 167.777 63.5787 -35.5335
rclavicle -1.39132e-014 2.38542e-015
rhumerus -52.8598 1.46875 -86.162
rradius 34.7962
rwrist -5.92587
rhand -44.7127 10.8684
rfingers 7.12502
rthumb -17.5071 -18.3633
lclavicle -1.39132e-014 2.38542e-015
lhumerus -49.1529 17.8644 71.7025
lradius 34.9628
lwrist -12.2759
lhand -40.6447 4.16343
lfingers 7.12502
lthumb -13.5892 33.6999
rfemur -41.3108 -5.1728 18.6468
rtibia 73.7336
rfoot -33.1374 -3.81119
rtoes 3.18055e-015
lfemur -40.8414 -2.09242 -20.9622
ltibia 68.1999
lfoot -23.6177 -0.55743
ltoes 3.81667e-014
306
root 0.410489 14.5669 5.3183 -189.414 84.8352 -198.131
lowerback -3.9771 -3.07172 0.669723
upperback -3.45566 -4.04879 -0.246775
thorax -1.38771 -2.01443 -0.733769
lowerneck 1.82434 -9.02788 -14.8933
upperneck 7.95971 41.0916 5.30509
head 167.969 63.5089 -35.3997
rclavicle 4.73675e-014 -7.45443e-016
rhumerus -53.0412 0.539076 -85.497
rradius 33.84
rwrist -5.26812
rhand -44.9226 10.8989
rfingers 7.12502
rthumb -17.7092 -18.3147
lclavicle 4.73675e-014 -7.45443e-016
lhumerus -49.5757 19.0567 71.2553
lradius 33.5759
lwrist -13.2381
lhand -40.5768 4.08212
lfingers 7.12502
lthumb -13.5238 33.623
rfemur -41.2599 -4.68326 18.4073
rtibia 73.0607
rfoot -32.6187 -3.71333
rtoes -6.04305e-014
lfemur -40.2845 -2.24893 -21.005
ltibia 67.1152
lfoot -23.2375 -0.605519
ltoes -3.33958e-014
